<?xml version="1.0" encoding="UTF-8"?>
<svg width="24px" height="24px" viewBox="0 0 24 24" version="1.1" xmlns="http://www.w3.org/2000/svg" xmlns:xlink="http://www.w3.org/1999/xlink">
    <title>Add</title>
    <g id="Add" stroke="none" stroke-width="1" fill="none" fill-rule="evenodd">
        <path d="M10.7172786,5.28272656 C10.7172786,4.57430234 11.2915658,4 12,4 C12.7084214,4 13.2827214,4.57430234 13.2827214,5.28272656 L13.2827214,10.7172927 L18.7172786,10.7172927 C19.4257256,10.7172927 20,11.2915822 20,12.0000192 C20,12.7084435 19.4257256,13.2827458 18.7172786,13.2827458 L13.2827214,13.2827458 L13.2827214,18.7172734 C13.2827214,19.4257233 12.7084214,20 12,20 C11.2915658,20 10.7172786,19.4257233 10.7172786,18.7172734 L10.7172786,13.2827458 L5.28272142,13.2827458 C4.57428721,13.2827458 4,12.7084435 4,12.0000192 C4,11.2915822 4.57428721,10.7172927 5.28272142,10.7172927 L10.7172786,10.7172927 L10.7172786,5.28272656 Z" id="Path" fill="#09217D"></path>
    </g>
</svg>