<?xml version="1.0" encoding="UTF-8"?>
<svg width="24px" height="24px" viewBox="0 0 24 24" version="1.1" xmlns="http://www.w3.org/2000/svg" xmlns:xlink="http://www.w3.org/1999/xlink">
    <title>Close</title>
    <g id="Close" stroke="none" stroke-width="1" fill="none" fill-rule="evenodd">
        <path d="M17.7742417,19.6180239 C18.2833788,20.1272914 19.1089502,20.1272914 19.6180874,19.6180239 C20.1272245,19.1088867 20.1272245,18.2833153 19.6180874,17.7741782 L13.8439115,12.0000071 L19.6180874,6.2257872 C20.1272245,5.71661094 20.1272245,4.89109166 19.6180874,4.3819154 C19.1089502,3.87275217 18.2833788,3.87275217 17.7742417,4.3819154 L12.0000136,10.1561304 L6.22577248,4.38188932 C5.71659621,3.87271306 4.89107694,3.87271306 4.38190067,4.38188932 C3.87273745,4.89105255 3.87273745,5.71658486 4.38190067,6.22574809 L10.1561548,12.0000071 L4.38191371,17.7741782 C3.87273745,18.2834457 3.87273745,19.1088867 4.38191371,19.6181543 C4.89107694,20.1272914 5.71660925,20.1272914 6.22577248,19.6181543 L12.0000136,13.843861 L17.7742417,19.6180239 Z" id="Path" fill="#62626C"></path>
    </g>
</svg>