<?xml version="1.0" encoding="UTF-8"?>
<svg width="24px" height="24px" viewBox="0 0 24 24" version="1.1" xmlns="http://www.w3.org/2000/svg" xmlns:xlink="http://www.w3.org/1999/xlink">
    <title>icons/embed-and-share</title>
    <g id="icons/embed-and-share" stroke="none" stroke-width="1" fill="none" fill-rule="evenodd">
        <path d="M13.513613,0 C13.5849125,0 13.6576975,0.00454230017 13.7304824,0.0166551006 C14.540029,0.137783105 15.1029981,0.911488234 14.9841656,1.73515867 L14.9841656,1.73515867 L11.9554215,22.7054445 C11.8469868,23.4564381 11.208262,24 10.484869,24 C10.4135695,24 10.3422699,23.9939436 10.269485,23.9833449 C9.46142383,23.8622169 8.89696932,23.0885118 9.01580185,22.2648413 L9.01580185,22.2648413 L12.0430605,1.29304145 C12.1514952,0.54356192 12.7917054,0 13.513613,0 Z M5.55118641,6 C5.92254689,6 6.29535799,6.15207735 6.57677961,6.45779984 C7.14107346,7.06767703 7.14107346,8.06480272 6.57677961,8.67467991 L6.57677961,8.67467991 L3.5,12 L6.57677961,15.3253201 C7.14107346,15.9351973 7.14107346,16.9338908 6.57677961,17.543768 C6.29535799,17.8479227 5.92254689,18 5.55118641,18 C5.17982592,18 4.80701482,17.8479227 4.5255932,17.543768 L4.5255932,17.543768 L0.423220392,13.10844 C-0.141073464,12.4985628 -0.141073464,11.5014372 0.423220392,10.89156 L0.423220392,10.89156 L4.5255932,6.45779984 C4.80701482,6.15207735 5.17982592,6 5.55118641,6 Z M18.4488136,6 C18.8201741,6 19.1929852,6.15207735 19.4744068,6.45779984 L19.4744068,6.45779984 L23.5767796,10.89156 C24.1410735,11.5014372 24.1410735,12.4985628 23.5767796,13.10844 L23.5767796,13.10844 L19.4744068,17.543768 C19.1929852,17.8479227 18.8201741,18 18.4488136,18 C18.0774531,18 17.704642,17.8479227 17.4232204,17.543768 C16.8589265,16.9338908 16.8589265,15.9351973 17.4232204,15.3268879 L17.4232204,15.3268879 L20.5,12 L17.4232204,8.67467991 C16.8589265,8.06480272 16.8589265,7.06767703 17.4232204,6.45779984 C17.704642,6.15207735 18.0774531,6 18.4488136,6 Z" id="embed-and-share" fill="#FFFFFF"></path>
    </g>
</svg>