<?xml version="1.0" encoding="UTF-8"?>
<svg width="24px" height="24px" viewBox="0 0 24 24" version="1.1" xmlns="http://www.w3.org/2000/svg" xmlns:xlink="http://www.w3.org/1999/xlink">
    <title>Embed</title>
    <g id="Embed" stroke="none" stroke-width="1" fill="none" fill-rule="evenodd">
        <path d="M13.761715,2 C13.820051,2 13.8817205,2.00416667 13.9417232,2.01416667 C14.6167538,2.11416667 15.0859417,2.75916667 14.9867706,3.44583333 L12.4624894,20.9208333 C12.3724854,21.5466667 11.8399612,22 11.2374339,22 C11.1782645,22 11.1182618,21.995 11.0574257,21.9858333 C10.3840618,21.8858333 9.91404052,21.2408333 10.0132117,20.5541667 L12.5358261,3.0775 C12.6258302,2.4525 13.1600211,2 13.7608817,2 L13.761715,2 Z M6.75714286,7 C7.076,7 7.39485714,7.12666667 7.63657143,7.38166667 C8.12,7.89 8.12,8.72083333 7.63657143,9.22916667 L5,12 L7.63742857,14.7708333 C8.12085714,15.2791667 8.12085714,16.1116667 7.63742857,16.62 C7.39571429,16.8733333 7.07685714,17 6.758,17 C6.44,17 6.12028571,16.8733333 5.87942857,16.62 L2.36257143,12.9233333 C1.87914286,12.415 1.87914286,11.5841667 2.36257143,11.0766667 L5.87942857,7.38166667 C6.12028571,7.12666667 6.44,7 6.75714286,7 Z M17.2426796,7 C17.5606342,7 17.8803028,7.12666667 18.1211256,7.38166667 L21.6374804,11.0766667 C22.1208399,11.585 22.1208399,12.4158333 21.6374804,12.9233333 L18.1211256,16.62 C17.8803028,16.8733333 17.5606342,17 17.2426796,17 C16.923868,17 16.6050564,16.8733333 16.3633767,16.62 C15.8800171,16.1116667 15.8800171,15.2791667 16.3633767,14.7725 L18.9995715,12 L16.3625196,9.22916667 C15.8791601,8.72083333 15.8791601,7.89 16.3625196,7.38166667 C16.6041994,7.12666667 16.923011,7 17.2418226,7 L17.2426796,7 Z" id="Shape" fill="#FFFFFF" fill-rule="nonzero"></path>
    </g>
</svg>