<?xml version="1.0" encoding="UTF-8"?>
<svg width="24px" height="24px" viewBox="0 0 24 24" version="1.1" xmlns="http://www.w3.org/2000/svg" xmlns:xlink="http://www.w3.org/1999/xlink">
    <title>Icon-Left</title>
    <g id="Icon-Left" stroke="none" stroke-width="1" fill="none" fill-rule="evenodd">
        <path d="M11.750808,21.3496515 C12.361713,21.9093015 13.310538,21.8676015 13.870128,21.2566515 C14.429628,20.6458515 14.388078,19.6969515 13.777128,19.1374515 L7.622373,13.5000015 L20.303478,13.5000015 C21.131778,13.5000015 21.803478,12.8284365 21.803478,12.0000015 C21.803478,11.1715815 21.131778,10.5000015 20.303478,10.5000015 L7.622433,10.5000015 L13.777128,4.8626415 C14.388078,4.3030815 14.429628,3.3542565 13.870128,2.7433515 C13.310553,2.1324615 12.361713,2.0908365 11.750808,2.6503815 L2.750808,10.8939015 C2.440608,11.1780315 2.263968,11.5793715 2.263968,12.0000315 C2.263968,12.4206915 2.440608,12.8220315 2.750808,13.1061615 L11.750808,21.3496515 Z" id="Path" fill="#37373C"></path>
    </g>
</svg>