<?xml version="1.0" encoding="UTF-8"?>
<svg width="24px" height="24px" viewBox="0 0 24 24" version="1.1" xmlns="http://www.w3.org/2000/svg" xmlns:xlink="http://www.w3.org/1999/xlink">
    <title>Kebab</title>
    <g id="Kebab" stroke="none" stroke-width="1" fill="none" fill-rule="evenodd">
        <path d="M6.750003,12.0000015 C6.750003,13.2426465 5.742648,14.2500015 4.500003,14.2500015 C3.257358,14.2500015 2.250003,13.2426465 2.250003,12.0000015 C2.250003,10.7573565 3.257358,9.7500015 4.500003,9.7500015 C5.742648,9.7500015 6.750003,10.7573565 6.750003,12.0000015 Z M14.249928,12.0000015 C14.249928,13.2426465 13.242648,14.2500015 12.000003,14.2500015 C10.757358,14.2500015 9.750003,13.2426465 9.750003,12.0000015 C9.750003,10.7573565 10.757358,9.7500015 12.000003,9.7500015 C13.242648,9.7500015 14.249928,10.7573565 14.249928,12.0000015 Z M19.499928,14.2500015 C20.742678,14.2500015 21.749928,13.2426465 21.749928,12.0000015 C21.749928,10.7573565 20.742678,9.7500015 19.499928,9.7500015 C18.257328,9.7500015 17.249928,10.7573565 17.249928,12.0000015 C17.249928,13.2426465 18.257328,14.2500015 19.499928,14.2500015 Z" id="Shape" fill="#37373C" transform="translate(11.999966, 12.000001) rotate(-270.000000) translate(-11.999966, -12.000001) "></path>
    </g>
</svg>