<?xml version="1.0" encoding="UTF-8"?>
<svg width="24px" height="24px" viewBox="0 0 24 24" version="1.1" xmlns="http://www.w3.org/2000/svg" xmlns:xlink="http://www.w3.org/1999/xlink">
    <title>Icons/Menu</title>
    <g id="Icons/Menu" stroke="none" stroke-width="1" fill="none" fill-rule="evenodd">
        <path d="M20,16 C21.1045695,16 22,16.8954305 22,18 C22,19.1045695 21.1045695,20 20,20 L4,20 C2.8954305,20 2,19.1045695 2,18 C2,16.8954305 2.8954305,16 4,16 L20,16 Z M20,10 C21.1045695,10 22,10.8954305 22,12 C22,13.1045695 21.1045695,14 20,14 L4,14 C2.8954305,14 2,13.1045695 2,12 C2,10.8954305 2.8954305,10 4,10 L20,10 Z M20,4 C21.1045695,4 22,4.8954305 22,6 C22,7.1045695 21.1045695,8 20,8 L4,8 C2.8954305,8 2,7.1045695 2,6 C2,4.8954305 2.8954305,4 4,4 L20,4 Z" id="Combined-Shape" fill="#62626C"></path>
    </g>
</svg>