<?xml version="1.0" encoding="UTF-8"?>
<svg width="24px" height="24px" viewBox="0 0 24 24" version="1.1" xmlns="http://www.w3.org/2000/svg" xmlns:xlink="http://www.w3.org/1999/xlink">
    <title>Artboard</title>
    <g id="Artboard" stroke="none" stroke-width="1" fill="none" fill-rule="evenodd">
        <path d="M7.55484,12.1675027 L15.0429,5.09171767 L17.22345,7.27223767 L10.011585,14.4840577 L7.02552,15.0145777 L7.55484,12.1675027 Z M14.04225,1.90975267 C14.632365,1.35212917 15.55905,1.36524217 16.1331,1.93934167 L20.4054,6.21158767 C20.99115,6.79736767 20.99115,7.74710767 20.4054,8.33290267 L11.799225,16.9390027 C11.58204,17.1562027 11.303385,17.3015527 11.00097,17.3552527 L5.417175,18.3473527 C4.385475,18.5306527 3.48852,17.6264527 3.680055,16.5962527 L4.6947,11.1387127 C4.75275,10.8264877 4.90839,10.5407527 5.13921,10.3226377 L14.04225,1.90975267 Z M4.5,20.1242527 C3.67158,20.1242527 3,20.7958027 3,21.6242527 C3,22.4527027 3.67158,23.1242527 4.5,23.1242527 L19.5,23.1242527 C20.32845,23.1242527 21,22.4527027 21,21.6242527 C21,20.7958027 20.32845,20.1242527 19.5,20.1242527 L4.5,20.1242527 Z" id="Shape" fill="#62626C"></path>
    </g>
</svg>