<?xml version="1.0" encoding="UTF-8"?>
<svg width="24px" height="24px" viewBox="0 0 24 24" version="1.1" xmlns="http://www.w3.org/2000/svg" xmlns:xlink="http://www.w3.org/1999/xlink">
    <title>Plus</title>
    <g id="Plus" stroke="none" stroke-width="1" fill="none" fill-rule="evenodd">
        <g id="16x16-Add" transform="translate(4.000000, 4.000000)" fill="#FFFFFF">
            <path d="M6.71727858,1.28272656 C6.71727858,0.574302337 7.29156579,0 8,0 C8.70842139,0 9.28272142,0.574302337 9.28272142,1.28272656 L9.28272142,6.71729268 L14.7172786,6.71729268 C15.4257256,6.71729268 16,7.29158219 16,8.00001924 C16,8.70844347 15.4257256,9.2827458 14.7172786,9.2827458 L9.28272142,9.2827458 L9.28272142,14.7172734 C9.28272142,15.4257233 8.70842139,16 8,16 C7.29156579,16 6.71727858,15.4257233 6.71727858,14.7172734 L6.71727858,9.2827458 L1.28272142,9.2827458 C0.574287208,9.2827458 0,8.70844347 0,8.00001924 C0,7.29158219 0.574287208,6.71729268 1.28272142,6.71729268 L6.71727858,6.71729268 L6.71727858,1.28272656 Z" id="Path"></path>
        </g>
    </g>
</svg>