<?xml version="1.0" encoding="UTF-8"?>
<svg width="24px" height="24px" viewBox="0 0 24 24" version="1.1" xmlns="http://www.w3.org/2000/svg" xmlns:xlink="http://www.w3.org/1999/xlink">
    <title>Search</title>
    <g id="Search" stroke="none" stroke-width="1" fill="none" fill-rule="evenodd">
        <path d="M10.3,2.8 C14.4421356,2.8 17.8,6.15786438 17.8,10.3 C17.8,11.8264774 17.343968,13.2464429 16.5607107,14.4310898 L20.763775,18.63415 C21.349525,19.2199 21.349525,20.1697 20.763775,20.75545 C20.178025,21.3412 19.228225,21.3412 18.642475,20.75545 L18.642475,20.75545 L14.4410365,16.5541228 C13.2543948,17.3414104 11.8307521,17.8 10.3,17.8 C6.15786438,17.8 2.8,14.4421356 2.8,10.3 C2.8,6.15786438 6.15786438,2.8 10.3,2.8 Z M10.3,5.8 C7.81471863,5.8 5.8,7.81471863 5.8,10.3 C5.8,12.7852814 7.81471863,14.8 10.3,14.8 C12.7852814,14.8 14.8,12.7852814 14.8,10.3 C14.8,7.81471863 12.7852814,5.8 10.3,5.8 Z" id="Combined-Shape" fill="#62626C" fill-rule="nonzero"></path>
    </g>
</svg>