<?xml version="1.0" encoding="UTF-8"?>
<svg width="32px" height="32px" viewBox="0 0 32 32" version="1.1" xmlns="http://www.w3.org/2000/svg" xmlns:xlink="http://www.w3.org/1999/xlink">
    <title>NavIcons/Content/Projects</title>
    <defs>
        <filter color-interpolation-filters="auto" id="filter-1">
            <feColorMatrix in="SourceGraphic" type="matrix" values="0 0 0 0 0.901961 0 0 0 0 0.976471 0 0 0 0 0.952941 0 0 0 1.000000 0"></feColorMatrix>
        </filter>
        <filter color-interpolation-filters="auto" id="filter-2">
            <feColorMatrix in="SourceGraphic" type="matrix" values="0 0 0 0 0.000000 0 0 0 0 0.756863 0 0 0 0 0.521569 0 0 0 1.000000 0"></feColorMatrix>
        </filter>
    </defs>
    <g id="---Responsive" stroke="none" stroke-width="1" fill="none" fill-rule="evenodd">
        <g id="NavIcons/Content/Projects">
            <g filter="url(#filter-1)" id="Icon-Background">
                <g>
                    <rect id="Rectangle" fill="#E2EFFD" x="0" y="0" width="32" height="32" rx="4"></rect>
                </g>
            </g>
            <g id="Icon" transform="translate(4.000000, 4.000000)" filter="url(#filter-2)">
                <g>
                    <path d="M2.25992006,20.5708601 C2.49052006,21.7041601 3.84142006,21.8415601 4.99472006,21.7728601 C6.14792006,21.7041601 16.2302201,21.8415601 18.5367201,22.0132601 C20.8431201,22.1849601 21.4032201,21.5667601 21.7327201,21.1203601 C21.9634201,20.8112601 22.0293201,17.0213601 22.0293201,15.2698601 C22.0293201,13.5526601 21.7986201,10.5688601 21.4691201,8.30216008 C21.2714201,6.89406008 21.7327201,5.62336008 18.1413201,5.34866008 C16.5268201,5.24566008 15.0556201,5.24566008 12.0902201,5.31426008 C11.7937201,4.52436008 10.7937201,2.49406008 10.1347201,2.15066008 C9.14622006,1.73846008 3.57782006,2.28796008 2.88592006,2.42536008 C2.12812006,2.59706008 2.12812006,3.00926008 2.12812006,3.93646008 L2.12812006,6.92446008 C2.12812006,8.22946008 1.76572006,18.3384601 2.25992006,20.5708601 Z" id="Path" fill="#62626C" fill-rule="nonzero"></path>
                </g>
            </g>
        </g>
    </g>
</svg>