<?xml version="1.0" encoding="UTF-8"?>
<svg width="32px" height="32px" viewBox="0 0 32 32" version="1.1" xmlns="http://www.w3.org/2000/svg" xmlns:xlink="http://www.w3.org/1999/xlink">
    <title>Users-Permissions</title>
    <defs>
        <filter color-interpolation-filters="auto" id="filter-1">
            <feColorMatrix in="SourceGraphic" type="matrix" values="0 0 0 0 1.000000 0 0 0 0 1.000000 0 0 0 0 1.000000 0 0 0 1.000000 0"></feColorMatrix>
        </filter>
        <filter color-interpolation-filters="auto" id="filter-2">
            <feColorMatrix in="SourceGraphic" type="matrix" values="0 0 0 0 0.215686 0 0 0 0 0.215686 0 0 0 0 0.235294 0 0 0 1.000000 0"></feColorMatrix>
        </filter>
    </defs>
    <g id="---Responsive" stroke="none" stroke-width="1" fill="none" fill-rule="evenodd">
        <g id="Users-Permissions">
            <g filter="url(#filter-1)" id="Icon-Background">
                <g>
                    <rect id="Rectangle" fill="#E2EFFD" x="0" y="0" width="32" height="32" rx="4"></rect>
                </g>
            </g>
            <g id="Icon" transform="translate(4.000000, 4.000000)" filter="url(#filter-2)">
                <g>
                    <path d="M11.9795007,11.6812178 C17.4877007,11.7582178 18.0843007,5.62342775 15.1250007,3.12080775 C13.0303007,1.34944775 9.3796907,1.73130775 7.9056807,3.88775775 C6.4316707,6.04420775 6.4713607,11.6041178 11.9795007,11.6812178 Z M2.0679907,21.2867178 C2.1103707,21.7159178 2.5722107,22.0699178 3.0867007,22.0565178 L20.7985007,22.1986425 C21.4214007,22.2022178 21.9343007,21.8129178 21.9595007,21.3473178 C22.1151007,19.6814178 21.8238007,17.9925178 21.0597007,16.5583178 C19.2580007,13.0837178 8.8364407,10.9365178 4.3016007,14.5465178 C2.1421907,16.2745178 1.8285807,19.0425178 2.0679907,21.2867178 Z" id="Shape" fill="#62626C"></path>
                </g>
            </g>
        </g>
    </g>
</svg>