<?xml version="1.0" encoding="UTF-8"?>
<svg width="32px" height="32px" viewBox="0 0 32 32" version="1.1" xmlns="http://www.w3.org/2000/svg" xmlns:xlink="http://www.w3.org/1999/xlink">
    <title>View-Stream</title>
    <defs>
        <filter color-interpolation-filters="auto" id="filter-1">
            <feColorMatrix in="SourceGraphic" type="matrix" values="0 0 0 0 1.000000 0 0 0 0 1.000000 0 0 0 0 1.000000 0 0 0 1.000000 0"></feColorMatrix>
        </filter>
        <filter color-interpolation-filters="auto" id="filter-2">
            <feColorMatrix in="SourceGraphic" type="matrix" values="0 0 0 0 0.215686 0 0 0 0 0.215686 0 0 0 0 0.235294 0 0 0 1.000000 0"></feColorMatrix>
        </filter>
    </defs>
    <g id="---Responsive" stroke="none" stroke-width="1" fill="none" fill-rule="evenodd">
        <g id="View-Stream">
            <g filter="url(#filter-1)" id="Icon-Background">
                <g>
                    <rect id="Rectangle" fill="#E2EFFD" x="0" y="0" width="32" height="32" rx="4"></rect>
                </g>
            </g>
            <g id="Icon" transform="translate(4.000000, 4.000000)" filter="url(#filter-2)">
                <g>
                    <path d="M18.9737042,7.86457117 C20.7874042,9.55338117 22.0656042,11.0859812 21.9974042,12.0438812 C22.0916042,13.3739812 19.6110042,15.7035812 17.2104042,17.4477812 C13.5235042,20.1267812 8.07189418,18.9114812 5.02630418,16.0755812 C3.21264418,14.3867812 1.93440418,12.8540812 2.00260418,11.8962812 C1.90837418,10.5661812 4.38904418,8.23659117 6.78955418,6.49235117 C10.4765042,3.81337117 15.9281042,5.02870117 18.9737042,7.86457117 Z M14.4483042,8.64866117 C12.6011042,7.06715117 9.38168418,7.40808117 8.08178418,9.33340117 C6.78187418,11.2586812 6.81687418,16.2226812 11.6744042,16.2914812 C16.5320042,16.3602812 17.0581042,10.8830812 14.4483042,8.64866117 Z M11.6759042,14.4390812 C14.4856042,14.4783812 14.7900042,11.3490812 13.2804042,10.0724812 C12.2119042,9.16886117 10.3497042,9.36365117 9.59783418,10.4636812 C8.84593418,11.5636812 8.86618418,14.3998812 11.6759042,14.4390812 Z" id="Shape" fill="#62626C"></path>
                </g>
            </g>
        </g>
    </g>
</svg>