<?xml version="1.0" encoding="UTF-8"?>
<svg width="32px" height="24px" viewBox="0 0 32 24" version="1.1" xmlns="http://www.w3.org/2000/svg" xmlns:xlink="http://www.w3.org/1999/xlink">
    <title>Logo</title>
    <g id="---Responsive" stroke="none" stroke-width="1" fill="none" fill-rule="evenodd">
        <g id="Navs/Small/Nav-Bar" transform="translate(-179.000000, -20.000000)" fill="#1E64F0" fill-rule="nonzero">
            <path d="M210.464117,29.2903226 C210.464117,29.2903226 211.815022,39.570602 197.98107,43.2741599 C195.888087,43.8322474 192.511156,43.9866611 189.431997,43.9991517 L188.727427,43.999634 C185.819745,43.9921389 183.299859,43.8720437 182.573913,43.8720437 L182.387014,43.8720049 C182.324029,43.8719794 182.260412,43.8719416 182.196326,43.8718927 L181.611248,43.87118 C181.545803,43.8710738 181.480374,43.8709595 181.415123,43.8708383 L181.027056,43.8700369 C180.324276,43.8684468 179.682278,43.8662779 179.316646,43.8649451 L179.083535,43.8640697 C179.065457,43.8639996 179.05015,43.8639395 179.037774,43.8638906 L179,43.8637397 L179,43.8637397 C179.047106,43.8121291 179.526018,43.2874214 184.873872,37.4281851 C186.464178,35.6843574 187.276431,35.318984 189.054837,35.318984 C190.824694,35.318984 194.937259,35.4850629 197.177367,35.2774643 C201.315583,34.8871791 204.538945,33.8740982 206.095051,32.9274489 C209.737364,30.7019926 210.464117,29.2903226 210.464117,29.2903226 Z M207.995217,20 L208.03107,20.0186771 C208.316903,20.1752435 210.199711,21.352789 209.592981,24.9199708 C209.315475,26.5356047 208.096128,27.9969822 206.674959,29.0443027 C203.933532,31.0983499 199.871847,31.9914139 197.021099,32.2025017 C194.414221,32.3973521 190.571177,32.4379459 188.830455,32.3242832 C187.089733,32.2025017 186.265623,31.9995326 184.718314,30.2864735 C179.77977,24.8173791 179.106332,24.0715935 179.0145,23.9698955 L179.006822,23.9613931 C179.005848,23.9603138 179.005012,23.9593887 179.004296,23.9585957 L179.000537,23.9544326 L179.00002,23.9538599 C179.417153,23.9642007 196.864983,24.3933973 202.117126,23.8077001 C207.767866,23.1776261 207.987727,20.3295322 207.995067,20.0261876 L207.995217,20 L207.995217,20 Z" id="Logo"></path>
        </g>
    </g>
</svg>