<?xml version="1.0" encoding="UTF-8"?>
<svg width="24px" height="24px" viewBox="0 0 24 24" version="1.1" xmlns="http://www.w3.org/2000/svg" xmlns:xlink="http://www.w3.org/1999/xlink">
    <title>Copy</title>
    <g id="Copy" stroke="none" stroke-width="1" fill="none" fill-rule="evenodd">
        <path d="M17.921478,15.8985015 C17.921478,16.7268015 18.593028,17.3985015 19.421478,17.3985015 C20.249928,17.3985015 20.921478,16.7268015 20.921478,15.8985015 L20.921478,6.0608415 C20.921478,4.4039865 19.578228,3.0608415 17.921478,3.0608415 L8.142438,3.0608415 C7.314018,3.0608415 6.642438,3.7324065 6.642438,4.5608415 C6.642438,5.3892615 7.314018,6.0608415 8.142438,6.0608415 L17.921478,6.0608415 L17.921478,15.8985015 Z M15.156228,21.0000015 C15.984678,21.0000015 16.656228,20.3284515 16.656228,19.5000015 L16.656228,8.9999865 C16.656228,8.1715665 15.984678,7.4999865 15.156228,7.4999865 L4.656288,7.4999865 C3.827853,7.4999865 3.156288,8.1715665 3.156288,8.9999865 L3.156288,19.5000015 C3.156288,20.3284515 3.827853,21.0000015 4.656288,21.0000015 L15.156228,21.0000015 Z" id="Shape" fill="#37373C"></path>
    </g>
</svg>