<?xml version="1.0" encoding="UTF-8"?>
<svg width="24px" height="24px" viewBox="0 0 24 24" version="1.1" xmlns="http://www.w3.org/2000/svg" xmlns:xlink="http://www.w3.org/1999/xlink">
    <title>Download</title>
    <g id="Download" stroke="none" stroke-width="1" fill="none" fill-rule="evenodd">
        <path d="M8.999988,4.5000015 C8.999988,3.6715665 9.671568,3.0000015 10.499988,3.0000015 L13.499988,3.0000015 C14.328378,3.0000015 14.999928,3.6715665 14.999928,4.5000015 L14.999928,9.0000015 L17.002128,9.0000015 C18.387828,9.0000015 19.032528,10.7182665 17.988678,11.6298015 L12.986688,15.9982515 C12.421488,16.4917515 11.578503,16.4917515 11.013318,15.9982515 L6.011253,11.6298015 C4.967508,10.7182665 5.612178,9.0000015 6.997938,9.0000015 L8.999988,9.0000015 L8.999988,4.5000015 Z M4.500003,18.0000015 C3.671568,18.0000015 3.000003,18.6715515 3.000003,19.5000015 C3.000003,20.3284515 3.671568,21.0000015 4.500003,21.0000015 L19.499928,21.0000015 C20.328378,21.0000015 20.999928,20.3284515 20.999928,19.5000015 C20.999928,18.6715515 20.328378,18.0000015 19.499928,18.0000015 L4.500003,18.0000015 Z" id="Shape" fill="#37373C"></path>
    </g>
</svg>