<?xml version="1.0" encoding="UTF-8"?>
<svg width="24px" height="24px" viewBox="0 0 24 24" version="1.1" xmlns="http://www.w3.org/2000/svg" xmlns:xlink="http://www.w3.org/1999/xlink">
    <title>Wistia</title>
    <g id="Wistia" stroke="none" stroke-width="1" fill="none" fill-rule="evenodd">
        <path d="M21.9771017,10 C21.9771017,10 21.9946061,10.1426283 21.9990059,10.3944744 L21.9990607,10.6242234 C21.9702824,12.3935747 21.2378305,17.4465628 14.0514038,19.5065561 C11.3425522,20.2799517 5.24627903,19.9130121 4.26913818,19.9130121 C4.21485258,19.9130121 4.1595952,19.9129947 4.10364156,19.9129618 L3.58869906,19.9122997 C3.5310476,19.9121913 3.47352646,19.9120732 3.41641115,19.9119474 L3.08079358,19.9111149 C2.80884431,19.9103696 2.56081719,19.9095274 2.37115267,19.9088305 L2.1737735,19.9080793 C2.14628071,19.9079709 2.12167347,19.9078722 2.10022731,19.9077851 L2,19.9073669 L2,19.9073669 C2.01151056,19.8938637 2.20719005,19.6643087 5.72942089,15.5323188 C6.7391331,14.346822 7.25484632,14.0984321 8.38398685,14.0984321 C9.50769882,14.0984321 12.1188363,14.2113366 13.5411191,14.070206 C16.1685422,13.8048805 18.2151095,13.1161633 19.2031074,12.4726078 C21.5156741,10.959688 21.9771017,10 21.9771017,10 Z M20.9348525,4 C20.9348525,4 22.332562,4.68688123 21.9257659,7.17748111 C21.7536599,8.22091138 20.9974365,9.16471765 20.1160451,9.84111215 C18.4158462,11.1676843 15.8968399,11.7444548 14.1288417,11.8807824 C12.5120881,12.0066232 10.1286805,12.03284 9.04910637,11.9594329 C7.96953223,11.8807824 7.45842951,11.7496982 6.49880805,10.6433475 C3.2305321,6.87429106 2.97419673,6.57867879 2.95409199,6.55549352 L2.95259483,6.55376695 C3.15499363,6.55874087 6.39994662,6.64120624 9.84650355,6.65558705 L10.4943998,6.65745005 L10.4943998,6.65745005 L11.1428465,6.65750408 C13.6242798,6.65397158 16.0258325,6.60586659 17.289334,6.45913967 C20.7277292,6.05989464 20.923863,4.28172403 20.9343393,4.02973662 Z" id="Logo" fill="#37373C" fill-rule="nonzero"></path>
    </g>
</svg>